<?xml version="1.0" encoding="utf-8"?>
<!-- Generator: Adobe Illustrator 24.0.2, SVG Export Plug-In . SVG Version: 6.00 Build 0)  -->
<svg version="1.1" id="Layer_1" xmlns="http://www.w3.org/2000/svg" xmlns:xlink="http://www.w3.org/1999/xlink" x="0px" y="0px"
	 viewBox="0 0 512 512" style="enable-background:new 0 0 512 512;" xml:space="preserve">
<style type="text/css">
	.st0{fill:#5D74BA;}
	.st1{fill:#495A91;}
	.st2{fill:#4285F4;}
	.st3{fill:#EA4335;}
	.st4{fill:#FBBC05;}
	.st5{fill:#34A853;}
</style>
<circle class="st0" cx="256" cy="256" r="256"/>
<path class="st1" d="M506.2,310.2L349.7,153.6l-130.5,10.4l-66.7,60.9l8.6,132.4l148.2,149.1C407.6,485.6,485.1,408.4,506.2,310.2z"
	/>
<path class="st2" d="M261.6,232.5v49.1h76.7c-10.9,35.1-43.6,60.6-82.3,60.6c-47.6,0-86.1-38.6-86.1-86.1
	c0-47.6,38.6-86.1,86.1-86.1c22.2,0,42.4,8.5,57.7,22.3l36-38.5C325,131,292.1,117.2,256,117.2c-76.7,0-138.8,62.1-138.8,138.8
	S179.3,394.8,256,394.8S394.8,332.7,394.8,256c0-8-0.7-15.9-2.1-23.5H261.6z"/>
<path class="st3" d="M256,169.9c22.2,0,42.4,8.5,57.7,22.3l36-38.5C325,131,292.1,117.2,256,117.2c-53.2,0-99.3,29.9-122.6,73.8
	l42.4,33.9C188.2,192.7,219.4,169.9,256,169.9z"/>
<path class="st4" d="M169.9,256c0-11,2.1-21.4,5.9-31.1L133.4,191c-10.3,19.4-16.2,41.5-16.2,65c0,23.6,5.9,45.8,16.3,65.3
	l42.1-34.5C172,277.2,169.9,266.9,169.9,256z"/>
<path class="st5" d="M303.9,327.5c-13.7,9.2-30.2,14.6-47.9,14.6c-36.7,0-68-23-80.4-55.4l-42.1,34.5C156.9,365,203,394.8,256,394.8
	c34.5,0,65.9-12.6,90.2-33.4L303.9,327.5z"/>
<path class="st2" d="M394.8,256c0-8-0.7-15.9-2.1-23.5H261.6v49.1h76.7c-5.9,19-18.2,35.2-34.4,46l42.3,33.9
	C375.9,336,394.8,298.2,394.8,256z"/>
</svg>
