<svg id="Ebene_1" data-name="Ebene 1" xmlns="http://www.w3.org/2000/svg" viewBox="0 0 279.8 279.8">
    <defs>
        <style>
            .cls-1{fill:#272a30;}.cls-2{fill:#21222b;}.cls-3{fill:#009fe8;}.cls-4{fill:#0093d9;}.cls-5{fill:#0079bd;}.cls-6{fill:#0069ad;}.cls-7{fill:#0086cb;}.cls-8{fill:#03438c;}.cls-9{fill:#005da2;}.cls-10{fill:#04448d;}.cls-11{fill:#004e95;}.cls-12{fill:#0061a5;}.cls-13{fill:#0182c6;}.cls-14{fill:#0176b9;}.cls-15{fill:#039fe7;}.cls-16{fill:#0083c7;}.cls-17{fill:#015197;}.cls-18{fill:#0077ba;}.cls-19{fill:#015a9f;}.cls-20{fill:#016db0;}.cls-21{fill:#0065a8;}.cls-22{fill:#03448d;}.cls-23{fill:#528bc1;}.cls-24{fill:#00549a;}.cls-25{fill:#0172b5;}.cls-26{fill:#01559a;}.cls-27{fill:#016cb0;}.cls-28{fill:#0063a7;}.cls-29{fill:#0187cc;}.cls-30{fill:#005399;}.cls-31{fill:#0185c9;}.cls-32{fill:#11a1e4;}.cls-33{fill:#0175b9;}.cls-34{fill:#0180c4;}.cls-35{fill:#0593d8;}.cls-36{fill:#0068af;}.cls-37{fill:#00519a;}.cls-38{fill:#568ec3;}.cls-39{fill:#007ec4;}.cls-40{fill:#008fd7;}.cls-41{fill:#1382c1;}.cls-42{fill:#0992d6;}
        </style>
    </defs>
    <title>mmclsicon</title>
    <circle class="cls-1" cx="139.9" cy="139.9" r="139.9"/>
    <path class="cls-2"
          d="M140.6.2a135.71,135.71,0,0,0-18.2,1.2,139.9,139.9,0,0,1,0,277.4,137.93,137.93,0,0,0,18.2,1.2A139.9,139.9,0,0,0,140.6.2Z"
          transform="translate(-0.8 -0.2)"/>
    <path class="cls-3"
          d="M78,95.2c.6-7.3,2.8-13.1,10.1-16.7,9.2-4.6,17.9-10.4,26.7-15.9,3.6-2.3,7.4-1.5,10.5-.1,4.8,2.2,10.2,2.3,14.8,5,.8.4,2.2.1,2,1.6,0,.5-.7.5-1.1.2-5.8-1.6-11.7-3.2-17.5-4.9-3.6-1-5.4-.8-5.2,4,.5,10.8.1,21.6.1,32.4,0,1.5-.2,3-.3,4.5a6.15,6.15,0,0,1-4.8.2c-10.6-2.5-21.1-5.1-31.6-8.1A8.9,8.9,0,0,1,78,95.2Z"
          transform="translate(-0.8 -0.2)"/>
    <path class="cls-4"
          d="M78,95.2l40.2,10a135.15,135.15,0,0,1,0,18,3.83,3.83,0,0,1-3.7.8c-7.8-1.7-15.5-3.8-23.2-5.8-.1-1.5-.2-2.9-.4-5.2l-2.5,6.5c-5-1.9-10.5-2.3-15-5.4C75,107.9,75.7,101.4,78,95.2Z"
          transform="translate(-0.8 -0.2)"/>
    <path class="cls-5"
          d="M91.3,153.2v-18a4.11,4.11,0,0,1,4.3-1.9,165.33,165.33,0,0,1,20.7,5.3c.8.3,1.3,1.1,1.9,1.6a108.19,108.19,0,0,1,0,18,3.69,3.69,0,0,1-3.2,1C107.1,157.4,99,156.2,91.3,153.2Z"
          transform="translate(-0.8 -0.2)"/>
    <path class="cls-6"
          d="M91.3,153.2c7.7-.5,14.7,2.9,22.1,4.3a26.48,26.48,0,0,0,4.8.7,96.52,96.52,0,0,1,0,17,3.69,3.69,0,0,1-3.2,1,241.76,241.76,0,0,1-23.7-6Z"
          transform="translate(-0.8 -0.2)"/>
    <path class="cls-7"
          d="M118.3,140.2c-6.9-1.7-13.8-3.2-20.7-5.2a10.12,10.12,0,0,0-6.2.2v-17c5.8-1.5,10.9,1.7,16.3,2.7,3.6.7,7.1,1.5,10.6,2.3A120.56,120.56,0,0,1,118.3,140.2Z"
          transform="translate(-0.8 -0.2)"/>
    <path class="cls-8"
          d="M183.1,131.3c-1.7,7.7-3.4,15.4-5,23.1a10.84,10.84,0,0,1-1.7,3.8c-4.8-14.4-7.5-29.2-11.2-43.6-1.1-4.4-3.4-8.5-3-13.3.5-.6,1-.5,1.6,0l1.2.8c2.2,1.2,3,3.5,4.2,5.4,4,6.1,7.8,12.4,11.9,18.5C182.2,127.5,183.6,129.1,183.1,131.3Z"
          transform="translate(-0.8 -0.2)"/>
    <path class="cls-9"
          d="M91.3,170.2c7.8-.8,14.7,3.1,22.1,4.3a26.48,26.48,0,0,0,4.8.7,85.52,85.52,0,0,1,0,16,2.41,2.41,0,0,1-1.8.7c-8.5-1.7-17.1-3.3-25.1-6.7Z"
          transform="translate(-0.8 -0.2)"/>
    <path class="cls-10"
          d="M161.2,173.2c2.6,8.2,5.5,16.4,6.8,25-3.7,1.6-7.2-.2-10.6-.8s-6.8-2.4-10.4-3.1c-2.3-.5-3.5-2.1-3.4-4.7.2-3.3,0-6.6.1-9.9C148.9,175.6,154.6,173.2,161.2,173.2Z"
          transform="translate(-0.8 -0.2)"/>
    <path class="cls-11"
          d="M91.3,185.2c9.3.5,17.9,4.3,26.9,6,.1,4.1.2,8.3.3,12.4.1,2.5-.6,3.1-3.2,2.2-7.1-2.5-14.2-4.8-21.5-6.8-2.3-.6-2.8-1.7-2.7-3.8C91.3,191.8,91.3,188.5,91.3,185.2Z"
          transform="translate(-0.8 -0.2)"/>
    <path class="cls-12"
          d="M77.1,160.2c-1.6,5.7-3.3,11.4-4.9,17.1-6-2.3-12.6-2.8-18.3-6-.6-5.8-4.6-10.9-3.6-17.1,3.9-2.6,7.5-1,11,1,.3,1.2-.3,3.1,2,3,1.5-2.9,4.1-1.6,6.1-1.2C72.3,157.5,75.1,157.9,77.1,160.2Z"
          transform="translate(-0.8 -0.2)"/>
    <path class="cls-13"
          d="M35.4,124.2c-.1-1.5-.2-3-.2-4.5,0-9,3.6-14.1,11.8-17.1,1.9-.7,2.5.4,2.8,1.6,1.9,8,3.6,15.9,5.4,23.9a3.46,3.46,0,0,1-3.2.8C46.4,127.6,40.6,126.9,35.4,124.2Z"
          transform="translate(-0.8 -0.2)"/>
    <path class="cls-14"
          d="M35.4,124.2c6.9-.4,13,3.4,19.8,4,.3,4.8,3.4,9,3.2,14-3.9,2-7.4.9-11-1L45,134l-1,.1v9.1c-3.2,2.2-6,1.1-8.6-1Z"
          transform="translate(-0.8 -0.2)"/>
    <path class="cls-15"
          d="M179.3,93.3c4.6-2.9,9.1-5.8,13.7-8.5a6.74,6.74,0,0,1,5.7-.7c5.4,1.8,10.9,3.6,16.4,5.2,3.6,1.1,5,3.5,5,7,0,4-.1,8-.1,11.9.5-.4-.9.6-.5.1-.2-.1-.8-.7-.7,0,.7,5.3.1,10.5.3,15.8v58.8c0,1.7.6,3.7-1.3,4.9-.1-5.8-.3-11.6-.3-17.4,0-24.1-.1-48.2.1-72.4,0-4.9-1.6-7.2-6.5-8a69.47,69.47,0,0,1-13.3-3.8c-3.8-1.5-4.3.1-4.9,3.3-1,5.6-2.5,11.2-3.8,16.8C184.2,103.2,182.2,97.9,179.3,93.3Z"
          transform="translate(-0.8 -0.2)"/>
    <path class="cls-16"
          d="M73.4,114.2c5.3,1.1,10.9,1.1,15,5.4-.9,5.4-2.8,10.4-4.4,15.6-5.1.6-9.7-2.5-14.7-2C69.5,126.7,72.9,120.8,73.4,114.2Z"
          transform="translate(-0.8 -0.2)"/>
    <path class="cls-17"
          d="M54,171.3c5.9.3,11.3,2.7,17,4.1.9.2,1.1,1.1,1.3,1.9-1,4-2.1,7.9-3.1,11.8a2,2,0,0,1-.9,1.1c-1.2.8-11.6-2.9-11.9-4.3C55.4,181.1,54.7,176.2,54,171.3Z"
          transform="translate(-0.8 -0.2)"/>
    <path class="cls-18"
          d="M69.3,133.2a3.24,3.24,0,0,1,4.1-1.2c3.5,1,7.2,1.5,10.6,3.1-1.3,4.7-2.5,9.4-3.8,14.1-4.7-1.1-9.4-2-13.8-4.1C67,141.2,67.4,137,69.3,133.2Z"
          transform="translate(-0.8 -0.2)"/>
    <path class="cls-19"
          d="M183.1,131.3c-6.2-9.7-13.2-18.8-18.1-29.3a4.16,4.16,0,0,1,3-1.8c3.3-1.3,4.5,1.4,5.7,3.4,3.7,5.9,7.7,11.6,11.2,17.7C184.8,124.7,184.8,128.2,183.1,131.3Z"
          transform="translate(-0.8 -0.2)"/>
    <path class="cls-20"
          d="M66.4,145.2c5,0,9.8.9,13.8,4.1-1,3.6-2.1,7.2-3.1,10.8-4.7-.1-8.8-3.7-13.8-2C63.8,153.7,64.4,149.3,66.4,145.2Z"
          transform="translate(-0.8 -0.2)"/>
    <path class="cls-21" d="M35.4,142.2l8.6,1v21a8.55,8.55,0,0,1-8.6-1Z" transform="translate(-0.8 -0.2)"/>
    <path class="cls-22"
          d="M201.1,182.2c.1,2.8.2,5.6.3,8.5,0,1.5-.3,2.7-2.2,2.4-2.7-.5-5.4-1.3-8.2-1.8-2.5-.5-4.7-1.5-5.8-4.1l3-12c1.6-1.4,3.1-.7,4.5.3C195.5,177.7,198.6,179.5,201.1,182.2Z"
          transform="translate(-0.8 -0.2)"/>
    <path class="cls-23"
          d="M144.3,179.2c-.6,12.9-.7,13.1,12.6,16.6,3.6,1,7.1,2.7,11,2.3a36,36,0,0,1-21.3-.5,3.54,3.54,0,0,1-2.9-3.5c-.1-1.6-.5-3.3-.5-4.9q0-38.4.1-76.9a7.57,7.57,0,0,0-.1-1.5c1.2.2.4,1.2.7,1.8,2.8,8.7,1.7,17.6,1.6,26.4a109,109,0,0,1,0,14,69.08,69.08,0,0,1,0,9.1,69.08,69.08,0,0,1,0,9.1C145.7,173.9,146.1,176.7,144.3,179.2Z"
          transform="translate(-0.8 -0.2)"/>
    <path class="cls-24"
          d="M35.4,163.2a20.79,20.79,0,0,1,8.6,1c.1,4.6.3,9.3.1,13.9-.1,1.4,1.5,4.4-1.4,4.1s-7.2.1-7.4-4.6S35.3,168,35.4,163.2Z"
          transform="translate(-0.8 -0.2)"/>
    <path class="cls-25"
          d="M185,121.2c-5.4-3.4-6.9-9.5-10.5-14.2-1.9-2.5-2.5-6.2-6.4-6.9,1.9-2,4.4-3.1,6.9-4.3,2.7,1.1,3.7,3.8,5,6,2.3,3.8,4.7,7.6,7.2,11.3C187.4,116.2,187.1,119,185,121.2Z"
          transform="translate(-0.8 -0.2)"/>
    <path class="cls-20" d="M47.4,141.2c3.7-.6,7.3,1.1,11,1,.6,4.4,3.7,8.3,3,13l-11-1A32.52,32.52,0,0,1,47.4,141.2Z"
          transform="translate(-0.8 -0.2)"/>
    <path class="cls-26"
          d="M201.1,182.2c-3.7-.4-5.8-3.4-8.6-5.2-1.4-.9-2.6-2-4.4-1.8-.5-3.7,2.5-6.6,2.5-10.2,5.2-1.7,7.7,2,10.5,5.2A48.19,48.19,0,0,1,201.1,182.2Z"
          transform="translate(-0.8 -0.2)"/>
    <path class="cls-27"
          d="M201.1,170.2c-3.7-1.3-6.1-5.1-10.5-5.2.1-4.4,2-8.5,2.6-12.8,3.5-1.4,5.5,1.3,7.9,3A75.19,75.19,0,0,1,201.1,170.2Z"
          transform="translate(-0.8 -0.2)"/>
    <path class="cls-28"
          d="M144.4,171.2v-9c3.7-2.9,7.6-5.2,12.6-4,.3,2.8,2.6,5,2.1,8C154.9,169.8,150.2,172.2,144.4,171.2Z"
          transform="translate(-0.8 -0.2)"/>
    <path class="cls-29"
          d="M187.2,113.2c-2.8-.6-3.8-3-5-5-2.6-4-4.8-8.2-7.2-12.3l4.3-2.6c4.7,3.2,6.4,8.8,9.8,13C188.5,108.6,187.9,110.9,187.2,113.2Z"
          transform="translate(-0.8 -0.2)"/>
    <path class="cls-30" d="M144.4,171.2l14.8-5.1c-.8,2.8,2.9,4.2,2.1,7l-16.9,6Z" transform="translate(-0.8 -0.2)"/>
    <path class="cls-31"
          d="M144.4,153.3l-.1-13.8c2.5-2.4,5-3.8,7.7-.2.5,3.8,3.1,7,3,11C151.7,152.1,148.6,154.6,144.4,153.3Z"
          transform="translate(-0.8 -0.2)"/>
    <path class="cls-32"
          d="M151.9,139.2c-2.6-2.1-5.1,0-7.7.2l-.3-26.9c2.6,2.8,2.6,6.3,3.4,9.7C148.8,128,150.4,133.6,151.9,139.2Z"
          transform="translate(-0.8 -0.2)"/>
    <path class="cls-33"
          d="M144.4,153.3c3.6-.6,6.7-3.4,10.6-3,.6,2.7,2.7,5,2.1,8l-12.6,4C144.4,159.3,144.4,156.3,144.4,153.3Z"
          transform="translate(-0.8 -0.2)"/>
    <path class="cls-34" d="M201.1,155.2c-3.2.5-4.9-2.9-7.9-3l3-12c2.2-.8,3.5.7,4.9,2Z"
          transform="translate(-0.8 -0.2)"/>
    <path class="cls-35" d="M201.1,142.2l-4.9-2c1.3-5.7,2.7-11.3,4-17l.9.1Z" transform="translate(-0.8 -0.2)"/>
    <path class="cls-36" d="M218.2,166.2v-23a1,1,0,0,1,1.4-.3l.3.3v23a1,1,0,0,1-1.4.3Z"
          transform="translate(-0.8 -0.2)"/>
    <path class="cls-37" d="M218.2,166.2h1.7c.1,6.3.2,12.6.1,18.9,0,1.3.9,3.9-2.3,2.7Z"
          transform="translate(-0.8 -0.2)"/>
    <path class="cls-38" d="M185.1,187.2c4.1,3.4,9.9,2.6,14,5.9-3.2.8-6.5.4-9.8.1C185.8,192.8,183.9,191,185.1,187.2Z"
          transform="translate(-0.8 -0.2)"/>
    <path class="cls-39" d="M219.9,143.2h-1.7V123.3c.9-.3,1.3.2,1.7.9Z" transform="translate(-0.8 -0.2)"/>
    <path class="cls-40" d="M219.9,124.2l-1.7-.9V104.8l1.7,3.4Z" transform="translate(-0.8 -0.2)"/>
    <path class="cls-41"
          d="M159.1,89.2c-2.2-5-2.1-10.8-5.1-15.6-.4-1,0-1.4,1.1-1.3,4.4,4.1,3.8,9.9,4.8,15C159.6,87.9,159.7,88.7,159.1,89.2Z"
          transform="translate(-0.8 -0.2)"/>
    <path class="cls-42" d="M155,72.3l-1.1,1.3L141,69.3c1.2-1.3-.9-1.1-.9-1.8C145.4,68.3,150.7,68.9,155,72.3Z"
          transform="translate(-0.8 -0.2)"/>
    <path class="cls-19"
          d="M159.1,89.2a10.66,10.66,0,0,0,.7-1.9c2.3,4.4,2.5,9.3,3.9,13.9h-1.6A32.64,32.64,0,0,1,159.1,89.2Z"
          transform="translate(-0.8 -0.2)"/>
</svg>