<?xml version="1.0" encoding="UTF-8" standalone="no"?>
<svg
   xmlns:dc="http://purl.org/dc/elements/1.1/"
   xmlns:cc="http://creativecommons.org/ns#"
   xmlns:rdf="http://www.w3.org/1999/02/22-rdf-syntax-ns#"
   xmlns:svg="http://www.w3.org/2000/svg"
   xmlns="http://www.w3.org/2000/svg"
   xmlns:sodipodi="http://sodipodi.sourceforge.net/DTD/sodipodi-0.dtd"
   xmlns:inkscape="http://www.inkscape.org/namespaces/inkscape"
   enable-background="new 0 0 24 24"
   height="24px"
   viewBox="0 0 24 24"
   width="24px"
   fill="#000000"
   version="1.1"
   id="svg6"
   sodipodi:docname="Task_Running.svg"
   inkscape:version="0.92.4 (5da689c313, 2019-01-14)">
  <metadata
     id="metadata12">
    <rdf:RDF>
      <cc:Work
         rdf:about="">
        <dc:format>image/svg+xml</dc:format>
        <dc:type
           rdf:resource="http://purl.org/dc/dcmitype/StillImage" />
      </cc:Work>
    </rdf:RDF>
  </metadata>
  <defs
     id="defs10" />
  <sodipodi:namedview
     pagecolor="#ffffff"
     bordercolor="#666666"
     borderopacity="1"
     objecttolerance="10"
     gridtolerance="10"
     guidetolerance="10"
     inkscape:pageopacity="0"
     inkscape:pageshadow="2"
     inkscape:window-width="1920"
     inkscape:window-height="986"
     id="namedview8"
     showgrid="false"
     inkscape:zoom="27.812867"
     inkscape:cx="1.1726017"
     inkscape:cy="8.5380367"
     inkscape:window-x="-11"
     inkscape:window-y="-11"
     inkscape:window-maximized="1"
     inkscape:current-layer="svg6" />
  <rect
     fill="none"
     height="24"
     width="24"
     id="rect2" />
  <path
     d="M 12,2 C 6.48,2 2,6.48 2,12 2,17.52 6.48,22 12,22 17.52,22 22,17.52 22,12 22,6.48 17.52,2 12,2 Z m 0,18 C 7.59,20 4,16.41 4,12 4,7.59 7.59,4 12,4 c 4.41,0 8,3.59 8,8 0,4.41 -3.59,8 -8,8 z"
     id="path4"
     inkscape:connector-curvature="0"
     sodipodi:nodetypes="ssssssssss" />
  <path
     inkscape:connector-curvature="0"
     d="m 12.813305,18.200847 c -0.31,0.31 -0.85,0.09 -0.85,-0.35 v -0.8 c -0.02,0 -0.04,0 -0.06,0 -1.28,0 -2.5599999,-0.49 -3.5399999,-1.46 -1.4300001,-1.43 -1.8100001,-3.52 -1.1400001,-5.299999 0.19,-0.5100003 0.8600001,-0.6400003 1.2400001,-0.25 v 0 c 0.22,0.22 0.27,0.54 0.17,0.82 -0.46,1.239999 -0.2,2.679999 0.8,3.679999 0.6999999,0.7 1.6199999,1.03 2.5399999,1.01 v -0.94 c 0,-0.45 0.54,-0.67 0.85,-0.35 l 1.62,1.62 c 0.2,0.2 0.2,0.51 0,0.71 z"
     id="path16" />
  <path
     inkscape:connector-curvature="0"
     d="m 15.343305,14.070847 v 0 c -0.22,-0.22 -0.27,-0.54 -0.17,-0.82 0.46,-1.24 0.2,-2.679999 -0.8,-3.6799993 -0.7,-0.7 -1.62,-1.04 -2.53,-1.02 0,0 0,0 0,0 v 0.94 c 0,0.45 -0.54,0.6700003 -0.85,0.35 l -1.6299999,-1.61 c -0.2,-0.2 -0.2,-0.51 0,-0.71 L 10.983305,5.9008476 c 0.31,-0.31 0.85,-0.09 0.85,0.35 v 0.8100001 c 1.3,-0.02 2.61,0.45 3.6,1.45 1.43,1.43 1.810001,3.5199993 1.14,5.2999993 -0.19,0.52 -0.85,0.65 -1.23,0.26 z"
     id="path4-5" />
</svg>
