<?xml version="1.0" encoding="utf-8"?>
<!-- Generator: Adobe Illustrator 24.0.2, SVG Export Plug-In . SVG Version: 6.00 Build 0)  -->
<svg version="1.1" id="Layer_1" xmlns="http://www.w3.org/2000/svg" xmlns:xlink="http://www.w3.org/1999/xlink" x="0px" y="0px"
	 viewBox="0 0 512 512" style="enable-background:new 0 0 512 512;" xml:space="preserve">
<style type="text/css">
	.st0{fill:#D11313;}
	.st1{fill:#BA0101;}
	.st2{fill:#FFFFFF;}
</style>
<circle class="st0" cx="256" cy="256" r="256"/>
<path class="st1" d="M256,0c-11.3,0-22.5,0.7-33.4,2.2C348.2,18.5,445.2,125.9,445.2,256s-97,237.5-222.6,253.8
	c10.9,1.4,22.1,2.2,33.4,2.2c141.4,0,256-114.6,256-256S397.4,0,256,0z"/>
<path class="st2" d="M132.4,388.1v-297c0-1.6,1.5-2.7,3-2.3l74.2,21.2c1,0.3,1.7,1.2,1.7,2.3v238.2c0,1.9,2.1,3,3.7,2l80.7-50.4
	c1.5-0.9,1.5-3.1,0.1-4l-29-19.4c-0.5-0.3-0.8-0.8-1-1.3l-21-73.6c-0.6-1.9,1.4-3.6,3.2-2.9l128.9,53.7c0.9,0.4,1.5,1.2,1.5,2.2
	v86.8c0,0.9-0.5,1.7-1.2,2.1l-154.9,88c-0.7,0.4-1.5,0.4-2.3,0.1l-86.3-43.6C132.9,389.8,132.4,389,132.4,388.1z"/>
</svg>
