<?xml version="1.0" encoding="utf-8"?>
<!-- Generator: Adobe Illustrator 24.0.2, SVG Export Plug-In . SVG Version: 6.00 Build 0)  -->
<svg version="1.1" id="Ebene_1" xmlns="http://www.w3.org/2000/svg" xmlns:xlink="http://www.w3.org/1999/xlink" x="0px" y="0px"
	 viewBox="0 0 279.6 279.6" style="enable-background:new 0 0 279.6 279.6;" xml:space="preserve">
<style type="text/css">
	.st0{fill:#FFCC00;}
	.st1{fill:#F9F9F9;}
</style>
<title>material-design-folder-icon-24</title>
<path class="st0" d="M150.3,279.6h-22.3c-4-0.7-8.1-0.5-12.1-1c-10.9-1.3-21.2-4.7-31.2-9C70.8,263.8,58.2,255.8,47,246
	c-15.1-13.1-27.2-29.2-35.4-47.4C6.4,187.5,2.5,176,1,163.8c-0.5-4.2-0.3-8.5-1-12.7v-22.3c0.5-4.1,0.5-8.3,1-12.4
	c1.2-10.7,4.6-20.9,8.6-30.8C15,72.8,22.2,60.8,31,50.2C41.7,37.2,54.6,26.3,69.2,18C83.4,9.6,99.1,4,115.3,1.3c6-1,12-1,18-1.1
	c9.6-0.3,19.1,0,28.7,0.8c5.5,0.6,10.9,1.7,16.1,3.4c39.6,11.4,72.2,39.4,89.5,76.7c5.3,11.3,9.3,23.2,10.8,35.6
	c1.2,11,1.4,22.1,0.9,33.1c-0.3,8.8-1.1,17.4-3.4,25.9c-10.9,40.9-39.4,74.8-77.8,92.6c-10.1,4.7-20.7,8-31.6,10
	c-4.6,0.9-9.4,0.8-14.1,1C151.7,279.4,150.9,279.1,150.3,279.6z"/>
<path class="st1" d="M140.4,192.4c-16.8,0-33.5-0.2-50.2,0.1c-8.5,0.1-15.1-5.4-15-15.1c0.3-24.8,0.3-49.7,0-74.5
	c-0.1-9.6,6.1-15.5,15.1-15.2c11.5,0.3,23.1,0.1,34.6,0c1.8-0.1,3.5,0.7,4.6,2c3.1,3.2,6.4,6.3,9.4,9.5c1,1.2,2.6,1.8,4.1,1.7
	c16.1-0.1,32.2,0,48.3,0c9.5,0,14.7,5.2,14.7,14.7c0,20.7,0,41.3,0,62c0,9.7-5.2,14.9-15.1,14.9L140.4,192.4L140.4,192.4z"/>
</svg>
