<svg width="803" height="803" xmlns="http://www.w3.org/2000/svg" xmlns:xlink="http://www.w3.org/1999/xlink" overflow="hidden"><defs><clipPath id="clip0"><rect x="1946" y="2784" width="803" height="803"/></clipPath><clipPath id="clip1"><path d="M1946.08 3185.51 2347.31 2784.28 2748.53 3185.51 2347.31 3586.73Z" fill-rule="evenodd" clip-rule="evenodd"/></clipPath><clipPath id="clip2"><path d="M1946.08 3185.51 2347.31 2784.28 2748.53 3185.51 2347.31 3586.73Z" fill-rule="evenodd" clip-rule="evenodd"/></clipPath><clipPath id="clip3"><path d="M1946.08 3185.51 2347.31 2784.28 2748.53 3185.51 2347.31 3586.73Z" fill-rule="evenodd" clip-rule="evenodd"/></clipPath></defs><g clip-path="url(#clip0)" transform="translate(-1946 -2784)"><g clip-path="url(#clip1)"><g clip-path="url(#clip2)"><g clip-path="url(#clip3)"><path d="M2129.98 3285.81 2159.23 3256.56 2175.95 3273.28 2146.7 3302.53Z" fill="#215968" fill-opacity="0.89804"/><path d="M2096.54 3252.38 2125.8 3223.12 2142.52 3239.84 2113.26 3269.1Z" fill="#215968" fill-opacity="0.89804"/><path d="M2163.41 3319.25 2192.67 3289.99 2209.39 3306.71 2180.13 3335.97Z" fill="#215968" fill-opacity="0.89804"/><path d="M2263.72 3419.56 2292.98 3390.3 2309.69 3407.02 2280.44 3436.27Z" fill="#215968" fill-opacity="0.89804"/><path d="M2230.28 3386.12 2259.54 3356.86 2276.26 3373.58 2247 3402.84Z" fill="#215968" fill-opacity="0.89804"/><path d="M2196.85 3352.69 2226.11 3323.43 2242.82 3340.15 2213.57 3369.4Z" fill="#215968" fill-opacity="0.89804"/><path d="M2518.66 3097.74 2547.92 3068.48 2564.64 3085.2 2535.38 3114.46Z" fill="#215968" fill-opacity="0.89804"/><path d="M2552.1 3131.18 2581.36 3101.92 2598.07 3118.64 2568.82 3147.89Z" fill="#215968" fill-opacity="0.89804"/><path d="M2485.23 3064.31 2514.49 3035.05 2531.2 3051.77 2501.95 3081.02Z" fill="#215968" fill-opacity="0.89804"/><path d="M2384.92 2964 2414.18 2934.74 2430.9 2951.46 2401.64 2980.72Z" fill="#215968" fill-opacity="0.89804"/><path d="M2451.79 3030.87 2481.05 3001.61 2497.77 3018.33 2468.51 3047.59Z" fill="#215968" fill-opacity="0.89804"/><path d="M2418.36 2997.43 2447.61 2968.18 2464.33 2984.9 2435.08 3014.15Z" fill="#215968" fill-opacity="0.89804"/><path d="M2196.85 3018.33 2213.57 3001.61 2242.82 3030.87 2226.11 3047.59Z" fill="#215968" fill-opacity="0.89804"/><path d="M2263.72 2951.46 2280.44 2934.74 2309.69 2964 2292.98 2980.72Z" fill="#215968" fill-opacity="0.89804"/><path d="M2230.28 2984.9 2247 2968.18 2276.26 2997.43 2259.54 3014.15Z" fill="#215968" fill-opacity="0.89804"/><path d="M2163.41 3051.77 2180.13 3035.05 2209.39 3064.31 2192.67 3081.02Z" fill="#215968" fill-opacity="0.89804"/><path d="M2096.54 3118.64 2113.26 3101.92 2142.52 3131.18 2125.8 3147.89Z" fill="#215968" fill-opacity="0.89804"/><path d="M2129.98 3085.2 2146.7 3068.48 2175.95 3097.74 2159.23 3114.46Z" fill="#215968" fill-opacity="0.89804"/><path d="M2418.36 3373.58 2435.08 3356.86 2464.33 3386.12 2447.61 3402.84Z" fill="#215968" fill-opacity="0.89804"/><path d="M2384.92 3407.02 2401.64 3390.3 2430.9 3419.56 2414.18 3436.27Z" fill="#215968" fill-opacity="0.89804"/><path d="M2451.79 3340.15 2468.51 3323.43 2497.77 3352.69 2481.05 3369.4Z" fill="#215968" fill-opacity="0.89804"/><path d="M2485.23 3306.71 2501.95 3289.99 2531.2 3319.25 2514.49 3335.97Z" fill="#215968" fill-opacity="0.89804"/><path d="M2518.66 3273.28 2535.38 3256.56 2564.64 3285.81 2547.92 3302.53Z" fill="#215968" fill-opacity="0.89804"/><path d="M2552.1 3239.84 2568.82 3223.12 2598.07 3252.38 2581.36 3269.1Z" fill="#215968" fill-opacity="0.89804"/><path d="M2238.64 3185.51 2347.31 3076.84 2455.97 3185.51 2347.31 3294.17Z" fill="#215968" fill-opacity="0.89804"/><path d="M2330.59 2976.54 2138.34 3168.79C2129.1 3178.02 2129.1 3192.99 2138.34 3202.23L2330.59 3394.48C2339.82 3403.71 2354.79 3403.71 2364.03 3394.48L2556.28 3202.23C2565.51 3192.99 2565.51 3178.02 2556.28 3168.79L2364.03 2976.54C2354.79 2967.3 2339.82 2967.3 2330.59 2976.54ZM2489.41 3185.51 2347.31 3327.61 2205.21 3185.51 2347.31 3043.41Z" fill="#215968" fill-opacity="0.89804"/></g></g></g></g></svg>